<svg xmlns="http://www.w3.org/2000/svg" width="920" height="920" viewBox="0 0 920 920" version="1.1"><path d="M 426.500 43.087 C 383.421 47.128, 346.504 55.658, 309 70.237 C 254.484 91.429, 206.054 123.028, 164.465 164.543 C 83.128 245.735, 38.961 356.405, 42.362 470.500 C 42.723 482.600, 43.215 494.075, 43.455 496 C 43.696 497.925, 44.405 504, 45.031 509.500 C 51.901 569.881, 75.229 633.899, 109.529 686.500 C 126.081 711.884, 141.974 731.201, 165.898 755.019 C 200.492 789.459, 236.357 814.890, 279.528 835.591 C 354.084 871.342, 439.345 884.475, 519.500 872.555 C 588.373 862.312, 649.572 837.697, 704.500 798.146 C 731.181 778.934, 761.912 750.291, 782.282 725.651 C 838.486 657.660, 871.115 576.360, 877.862 487.500 C 879.006 472.437, 878.573 437.307, 877.049 421.500 C 868.794 335.890, 837.149 259.769, 781.641 192 C 777.811 187.325, 765.863 174.715, 755.089 163.977 C 727.580 136.561, 706.630 120.090, 676 101.793 C 623.005 70.136, 570.669 52.306, 507.500 44.386 C 493.564 42.639, 440.373 41.786, 426.500 43.087 M 225.626 274.518 C 220.909 276.139, 217.172 279.492, 215.371 283.718 C 214.229 286.397, 214.002 312.424, 214.015 439.218 C 214.031 608.179, 213.622 597.698, 220.732 611.397 C 225.641 620.855, 236.145 631.359, 245.603 636.268 C 259.477 643.469, 241.933 642.969, 481.282 642.985 C 718.368 643.001, 700.727 643.492, 706.670 636.723 C 712.182 630.445, 712.321 621.271, 707.002 614.818 C 700.864 607.372, 721.445 608, 483.465 608 C 324.155 608, 268.746 607.704, 265.858 606.839 C 260.843 605.337, 254.518 599.882, 251.716 594.643 L 249.500 590.500 249 437.927 L 248.500 285.353 245.839 281.333 C 241.531 274.823, 233.053 271.965, 225.626 274.518 M 618 314.726 C 591.875 320.528, 570.295 325.456, 570.044 325.677 C 569.793 325.898, 575.470 331.960, 582.659 339.149 L 595.729 352.220 574.478 373.360 C 562.789 384.987, 542.375 405.297, 529.112 418.493 L 504.998 442.486 472.998 410.498 L 440.997 378.509 376.399 443.004 C 339.272 480.074, 311.206 508.868, 310.401 510.718 C 306.656 519.320, 310.164 529.415, 318.384 533.690 C 322.167 535.658, 330.029 535.540, 334.188 533.454 C 336.010 532.540, 360.789 508.556, 389.254 480.156 L 441.007 428.519 473.005 460.505 L 505.003 492.491 562.780 434.720 L 620.557 376.949 633.809 390.111 C 641.097 397.350, 647.184 403.099, 647.334 402.886 C 647.678 402.401, 669.018 305.773, 669.008 304.750 C 668.994 303.462, 666.690 303.913, 618 314.726" stroke="none" fill="#3cb4cc" fill-rule="evenodd"/><path d="M 0 460.001 L 0 920.002 460.250 919.751 L 920.500 919.500 920.751 459.750 L 921.002 0 460.501 0 L 0 0 0 460.001 M 0.496 460.500 C 0.496 713.500, 0.610 816.851, 0.750 690.168 C 0.890 563.486, 0.890 356.486, 0.750 230.168 C 0.610 103.851, 0.496 207.500, 0.496 460.500 M 426.500 43.087 C 383.421 47.128, 346.504 55.658, 309 70.237 C 254.484 91.429, 206.054 123.028, 164.465 164.543 C 83.128 245.735, 38.961 356.405, 42.362 470.500 C 42.723 482.600, 43.215 494.075, 43.455 496 C 43.696 497.925, 44.405 504, 45.031 509.500 C 51.901 569.881, 75.229 633.899, 109.529 686.500 C 126.081 711.884, 141.974 731.201, 165.898 755.019 C 200.492 789.459, 236.357 814.890, 279.528 835.591 C 354.084 871.342, 439.345 884.475, 519.500 872.555 C 588.373 862.312, 649.572 837.697, 704.500 798.146 C 731.181 778.934, 761.912 750.291, 782.282 725.651 C 838.486 657.660, 871.115 576.360, 877.862 487.500 C 879.006 472.437, 878.573 437.307, 877.049 421.500 C 868.794 335.890, 837.149 259.769, 781.641 192 C 777.811 187.325, 765.863 174.715, 755.089 163.977 C 727.580 136.561, 706.630 120.090, 676 101.793 C 623.005 70.136, 570.669 52.306, 507.500 44.386 C 493.564 42.639, 440.373 41.786, 426.500 43.087 M 225.626 274.518 C 220.909 276.139, 217.172 279.492, 215.371 283.718 C 214.229 286.397, 214.002 312.424, 214.015 439.218 C 214.031 608.179, 213.622 597.698, 220.732 611.397 C 225.641 620.855, 236.145 631.359, 245.603 636.268 C 259.477 643.469, 241.933 642.969, 481.282 642.985 C 718.368 643.001, 700.727 643.492, 706.670 636.723 C 712.182 630.445, 712.321 621.271, 707.002 614.818 C 700.864 607.372, 721.445 608, 483.465 608 C 324.155 608, 268.746 607.704, 265.858 606.839 C 260.843 605.337, 254.518 599.882, 251.716 594.643 L 249.500 590.500 249 437.927 L 248.500 285.353 245.839 281.333 C 241.531 274.823, 233.053 271.965, 225.626 274.518 M 618 314.726 C 591.875 320.528, 570.295 325.456, 570.044 325.677 C 569.793 325.898, 575.470 331.960, 582.659 339.149 L 595.729 352.220 574.478 373.360 C 562.789 384.987, 542.375 405.297, 529.112 418.493 L 504.998 442.486 472.998 410.498 L 440.997 378.509 376.399 443.004 C 339.272 480.074, 311.206 508.868, 310.401 510.718 C 306.656 519.320, 310.164 529.415, 318.384 533.690 C 322.167 535.658, 330.029 535.540, 334.188 533.454 C 336.010 532.540, 360.789 508.556, 389.254 480.156 L 441.007 428.519 473.005 460.505 L 505.003 492.491 562.780 434.720 L 620.557 376.949 633.809 390.111 C 641.097 397.350, 647.184 403.099, 647.334 402.886 C 647.678 402.401, 669.018 305.773, 669.008 304.750 C 668.994 303.462, 666.690 303.913, 618 314.726" stroke="none" fill="#f1f1f1" fill-rule="evenodd"/></svg>